P3
10 10
255
221 236 255
222 236 255
220 235 255
220 235 255
94 129 175
130 152 181
122 137 156
138 156 181
128 151 181
128 151 181
182 199 221
140 157 181
109 150 128
139 174 129
96 128 175
132 153 181
108 108 129
74 16 16
94 108 127
133 154 181
30 0 49
80 56 109
98 111 128
98 165 121
102 138 19
143 111 130
108 27 32
144 35 39
101 21 23
131 153 181
95 112 129
51 37 54
144 160 181
97 125 176
221 235 255
28 88 155
147 35 39
148 35 39
151 36 39
123 111 130
139 157 181
133 154 181
130 152 181
69 146 27
194 206 221
156 178 211
162 40 45
109 29 32
141 34 39
40 3 11
112 116 128
134 154 181
101 112 128
91 107 132
163 184 207
215 232 255
158 168 234
180 167 182
220 235 255
184 173 182
137 156 181
132 153 181
129 152 181
140 158 181
101 123 146
134 154 181
207 227 255
144 117 31
215 232 255
218 234 255
129 152 181
132 153 181
133 154 181
136 155 181
135 155 181
133 154 181
134 154 181
195 221 255
207 228 255
203 225 255
138 156 181
113 132 156
108 117 131
142 158 181
135 155 181
98 108 140
137 156 181
130 152 181
122 155 166
131 153 181
129 151 181
130 152 181
129 152 181
124 125 134
60 12 117
64 12 117
66 80 95
80 110 112
115 158 151
109 154 151
